<?xml version="1.0" standalone="no"?>
<!DOCTYPE svg PUBLIC "-//W3C//DTD SVG 20010904//EN"
 "http://www.w3.org/TR/2001/REC-SVG-20010904/DTD/svg10.dtd">
<svg version="1.0" xmlns="http://www.w3.org/2000/svg"
 width="154.000000pt" height="154.000000pt" viewBox="0 0 154.000000 154.000000"
 preserveAspectRatio="xMidYMid meet">
<metadata>
Created by potrace 1.11, written by Peter Selinger 2001-2013
</metadata>
<g transform="translate(0.000000,154.000000) scale(0.100000,-0.100000)"
fill="#000000" stroke="none">
<path d="M632 1495 c-118 -26 -222 -85 -313 -178 -78 -80 -171 -247 -136 -247
7 0 20 20 30 44 50 122 164 246 279 303 238 118 499 81 694 -100 35 -32 55
-22 23 11 -62 67 -167 128 -279 162 -70 21 -216 23 -298 5z"/>
<path d="M630 1415 c-30 -7 -59 -11 -65 -8 -5 4 -7 3 -3 -1 4 -5 -19 -22 -51
-38 -103 -53 -208 -169 -251 -277 -33 -85 -42 -139 -45 -282 -2 -111 -6 -143
-21 -168 -10 -17 -21 -31 -25 -31 -4 0 -9 -7 -13 -15 -10 -28 22 -16 48 18 31
40 35 61 37 207 2 197 41 306 149 421 33 35 60 60 60 56 0 -4 10 3 21 14 42
42 147 81 256 95 21 2 42 9 47 14 14 14 -77 11 -144 -5z"/>
<path d="M844 1419 c-3 -5 1 -11 8 -13 121 -38 157 -54 207 -87 76 -51 138
-121 179 -202 52 -105 62 -169 59 -370 -1 -114 2 -176 8 -174 26 9 26 337 0
437 -53 207 -213 363 -418 409 -21 5 -39 5 -43 0z"/>
<path d="M673 1344 c-72 -15 -163 -60 -212 -106 -50 -46 -22 -46 40 1 71 53
146 80 244 87 191 14 371 -103 445 -288 24 -63 46 -78 35 -25 -10 45 -62 141
-97 177 -16 17 -26 36 -22 42 5 7 3 8 -5 3 -7 -4 -22 1 -34 12 -104 89 -255
126 -394 97z"/>
<path d="M690 1270 c-104 -22 -206 -97 -268 -198 -17 -29 -30 -52 -27 -52 2 0
0 -12 -6 -27 -13 -34 -19 -100 -23 -243 -2 -94 -7 -123 -24 -160 -23 -48 -62
-93 -106 -123 -28 -19 -34 -37 -12 -37 24 0 101 76 129 127 31 59 40 101 41
203 0 41 5 78 11 82 7 5 6 8 -1 8 -25 0 1 133 42 212 21 41 94 119 105 112 5
-3 9 0 9 6 0 16 106 60 161 67 58 7 155 -4 172 -20 15 -15 64 -21 71 -9 9 15
-104 53 -169 57 -33 2 -80 0 -105 -5z"/>
<path d="M1262 1243 c2 -5 20 -42 41 -84 54 -110 69 -175 71 -323 2 -96 6
-131 16 -134 23 -8 7 277 -20 363 -23 74 -84 185 -102 185 -5 0 -8 -3 -6 -7z"/>
<path d="M685 1188 c-63 -21 -92 -38 -137 -82 -43 -43 -88 -119 -88 -150 0 -8
-6 -17 -12 -19 -7 -3 -8 -6 -3 -6 6 -1 9 -34 7 -87 -3 -63 0 -85 8 -82 8 2 13
35 15 88 4 129 22 172 103 247 58 55 122 76 210 71 133 -8 228 -86 266 -219
20 -71 15 -332 -9 -434 -21 -89 -22 -104 -10 -105 5 -1 18 29 28 67 15 52 20
113 23 259 4 178 3 195 -18 253 -27 74 -94 147 -165 181 -53 25 -169 34 -218
18z"/>
<path d="M1010 1175 c0 -3 20 -30 44 -59 75 -93 88 -143 88 -342 1 -95 -3
-177 -7 -183 -4 -7 -9 -36 -11 -65 -5 -71 -55 -220 -106 -317 -23 -43 -38 -82
-35 -86 18 -17 120 183 143 282 33 134 42 231 40 390 -3 187 -13 232 -72 311
-42 57 -84 91 -84 69z"/>
<path d="M384 1152 c-16 -10 -60 -100 -74 -152 -7 -25 -14 -108 -15 -185 -2
-161 -19 -215 -80 -268 -19 -16 -35 -33 -35 -38 0 -35 82 37 112 99 20 41 23
64 25 185 2 151 17 228 58 301 26 47 30 72 9 58z"/>
<path d="M746 1111 c-6 -10 5 -15 26 -12 3 0 29 -6 56 -14 56 -17 105 -51 96
-67 -4 -7 -2 -8 4 -4 7 4 20 -10 33 -36 17 -33 24 -66 27 -136 3 -63 8 -92 16
-89 7 2 10 33 9 91 -3 124 -37 191 -125 244 -42 26 -132 40 -142 23z"/>
<path d="M633 1089 c1 -3 -17 -25 -40 -49 -55 -54 -65 -92 -68 -260 -3 -149
-17 -213 -64 -295 -32 -56 -97 -126 -142 -152 -33 -20 -38 -33 -10 -33 30 0
152 128 189 198 18 34 31 62 29 62 -3 0 1 21 9 47 9 28 14 92 14 167 0 67 5
139 11 161 14 51 52 102 95 127 42 25 43 35 5 34 -16 -1 -29 -4 -28 -7z"/>
<path d="M692 1020 c-18 -11 -38 -17 -44 -14 -7 4 -8 2 -4 -4 4 -6 -3 -25 -15
-41 -19 -26 -22 -45 -25 -172 -3 -89 -10 -167 -20 -204 -9 -33 -19 -73 -21
-90 -4 -29 -3 -29 11 -11 9 11 16 26 16 34 0 7 4 10 10 7 6 -3 7 1 4 9 -3 9
-1 30 6 48 6 18 13 96 16 173 6 165 14 196 59 231 70 53 171 29 212 -49 22
-42 20 -274 -3 -386 -34 -167 -110 -313 -221 -428 -12 -12 -17 -25 -12 -28 14
-9 26 1 90 83 68 86 119 187 150 295 29 105 34 145 34 308 -1 139 -2 148 -25
182 -50 73 -149 99 -218 57z"/>
<path d="M147 978 c-10 -68 -8 -268 2 -268 13 0 12 -12 15 135 2 66 4 125 6
130 4 18 0 35 -9 35 -5 0 -11 -15 -14 -32z"/>
<path d="M755 961 c-64 -19 -73 -42 -76 -200 -3 -184 -30 -281 -112 -400 -34
-50 -94 -112 -131 -136 -29 -19 -34 -35 -11 -35 19 0 134 113 172 170 74 111
104 225 107 408 3 147 10 165 65 165 31 0 66 -26 56 -43 -3 -5 -2 -10 2 -10 8
0 10 -162 2 -249 -4 -53 16 -68 24 -19 3 18 5 94 4 169 -2 112 -5 138 -19 152
-22 23 -59 35 -83 28z"/>
<path d="M1219 763 c0 -87 -2 -167 -4 -178 -2 -11 -7 -40 -10 -65 -7 -57 -61
-233 -86 -282 -23 -44 -23 -48 -6 -48 30 0 106 231 123 375 8 67 12 310 6 338
-2 9 -8 17 -13 17 -5 0 -9 -71 -10 -157z"/>
<path d="M759 878 c0 -2 -2 -61 -4 -133 -2 -71 -6 -143 -9 -160 -10 -45 -37
-126 -53 -157 -7 -15 -13 -30 -13 -33 1 -15 -78 -118 -136 -176 -70 -71 -75
-102 -7 -44 22 19 44 31 48 27 5 -4 5 -2 2 4 -3 5 5 23 19 40 14 16 33 38 42
49 33 39 92 171 112 249 22 87 29 336 10 336 -5 0 -10 -1 -11 -2z"/>
<path d="M981 603 c-14 -109 -58 -256 -73 -247 -7 4 -8 3 -4 -5 9 -14 -51
-126 -110 -203 -47 -63 -45 -86 3 -35 29 30 103 139 103 152 0 3 8 17 17 32
10 14 18 31 20 37 1 6 14 44 28 85 27 79 45 172 45 234 0 68 -17 38 -29 -50z"/>
<path d="M445 654 c-22 -97 -77 -185 -158 -248 -54 -43 -49 -61 8 -26 46 28
108 100 134 155 27 57 43 127 31 139 -5 5 -12 -3 -15 -20z"/>
<path d="M805 498 c-4 -13 -13 -36 -20 -53 -7 -16 -18 -43 -25 -60 -20 -49
-97 -160 -145 -208 -43 -44 -55 -67 -36 -67 15 0 110 110 156 180 41 64 95
186 95 215 0 23 -18 18 -25 -7z"/>
<path d="M1286 500 c-3 -8 -17 -54 -30 -102 -17 -67 -20 -88 -10 -88 13 0 18
15 44 121 12 49 9 98 -4 69z"/>
<path d="M499 398 c-25 -32 -84 -91 -129 -126 -33 -26 -19 -40 17 -17 34 21
127 116 142 144 18 33 -5 33 -30 -1z"/>
<path d="M962 271 c-22 -44 -55 -101 -72 -126 -30 -44 -35 -65 -10 -50 18 11
94 135 117 192 34 83 8 71 -35 -16z"/>
</g>
</svg>
