<?xml version="1.0" encoding="utf-8"?>
<!-- Generator: Adobe Illustrator 19.2.1, SVG Export Plug-In . SVG Version: 6.00 Build 0)  -->
<svg version="1.1" id="Layer_1" xmlns="http://www.w3.org/2000/svg" xmlns:xlink="http://www.w3.org/1999/xlink" x="0px" y="0px"
	 viewBox="0 0 53.4 51" style="enable-background:new 0 0 53.4 51;" xml:space="preserve">
<style type="text/css">
	.st0{fill:#FFFFFF;}
</style>
<g>
	<polygon class="st0" points="26.7,48.2 27.6,44.7 25.7,44.7 	"/>
	<path class="st0" d="M1.8,38.4c0.4,0.6,1,1.2,2.8,0.9c0,0,0,0,0,0V40c0,0.3,0.3,0.5,0.8,0.5c0.4,0,0.8-0.2,0.8-0.5v-1.2h2.3
		l0.1-2.5h1.8l0,2.2c12.8,7.5,24,3.7,24,3.7v-2.9c-21.9,5.6-23.7-9.9-23.7-9.9v-9.6c0.7-3.9,2.3-5.3,2.3-5.3v-1.2
		c0-1-0.1-1.8-0.2-2.3c-1.2,0.4-2.3,1-2.3,1l-0.2,2.2H8.5v-0.8v-1v-0.7H6.1v-1.2c0-0.3-0.3-0.5-0.8-0.5c-0.4,0-0.8,0.2-0.8,0.5v0.7
		c-0.9,0-2.4,0.2-2.8,1.1c-0.3,0.7-0.6,2.2,1.2,2.9l0,0c0-0.1-0.2-2.2,1.5-2.1c1,0.1,1.8,0.2,2.7,2.5c0,0.1,0.3,0.8,0.3,1.9v3.8
		c0,0.7-0.2,1.1-0.4,1.3L6.9,23l-2.3,2.3l2.5,2.5l0,0c0,0,0.4,0.4,0.4,1.5v4.5c0,0.2,0,0.4,0,0.6l0,0c-0.1,1.3-0.9,2.1-1.4,2.6
		c-0.1,0.1-0.3,0.2-0.4,0.3l0,0l0,0c-0.9,0.5-2,0.2-2,0.2c-0.6-0.1-0.8-0.7-0.8-1.2c0-0.3,0-0.6,0-0.6S0.7,36.5,1.8,38.4z"/>
	<path class="st0" d="M10.2,6c0.2,0.1,0.6,0.2,1.1,0c0.4-0.2,0.8-0.5,0.8-1l-0.3,0.2C11,5.7,10.6,5.3,10.3,5l0,0c0,0,0,0,0,0
		c0,0,0,0,0-0.1c-0.2-0.5,0-1.1,0.1-1.2C10.8,2.8,11.8,3,11.8,3c1,0.1,1.6,1.6,1.9,3.1c0.5,3.6,0.7,9.2,0.7,14.4c0,0.2,0,0.4,0,0.6
		c0,0.4-0.1,0.8-0.3,1.3l-1.2,2.1l1.2,1.8c0.1,0.1,0.3,0.5,0.3,1c0,4.1-0.2,7-0.2,7c1.1,1.9,3.5,2.8,3.5,2.8
		c0.1-2.8,0.2-6.2,0.1-9.7l0,0c0-0.3,0-0.5,0.1-0.6l1.1-2.4l-1.1-1.2c-0.2-0.2-0.3-0.6-0.3-0.6c-0.2-7.1-0.5-13.9-0.7-16.4
		c0.2,0.6,0.7,2.1,2.1,1.1c0,0-0.7-0.9-0.7-2.2c0-0.8,0.4-1.2,0.6-1.3c0.5-0.4,1.1-0.8,1.8-0.8c0,0-0.6-1.8-2-1.7c0,0-1.5,0-2.1,1.1
		h-1.1c-0.3-0.5-1.1-1.3-2.8-1.5l0,0c-1-0.1-1.7,0-1.8,0C10.3,1,8.9,1.7,8.7,3.6C8.7,3.7,8.5,5.4,10.2,6z"/>
	<path class="st0" d="M18.7,10.8C23.1,9.2,30.8,10,30.8,10l1-2.1c-7.2-1.4-13.1,1-13.1,1V10.8z"/>
	<path class="st0" d="M20.8,45.5C20,46,19.3,46,18.9,45.9c-0.2,0-0.4-0.1-0.5-0.3l0,0l0,0c-0.7-0.7-0.9-2.5-0.9-2.5
		c-0.8,0-3.3-0.9-3.3-0.9L14,46.6c0,0.3-0.1,0.7-0.3,1c-0.6,0.7-1.2,0.9-1.7,0.8l0,0c-2-0.2-1.6-2.1-1.6-2.1l0,0
		c0.1-1.5,1.8-1.4,1.8-1.4c0.1-0.9-0.5-1.3-1.1-1.5c-0.7-0.2-1.3,0-1.3,0l0,0c-1.3,0.5-1.6,1.7-1.6,2.4h-1c-0.3-1.6-1.7-2.1-2.7-2.3
		c-1-0.1-1.7,0.1-1.9,0.2c0,0,0,0-0.1,0c-2.1,0.9-2.1,3.2-2.1,3.2c-0.1,1.8,0.6,2.5,1.1,2.8c0,0,0.5,0.3,1.5,0
		c0.9-0.4,1.1-1.1,1.1-1.1c-1.4,0.3-1.8,0-2-0.4c0-0.1-0.3-0.7,0-1.4c0-0.1,0.1-0.3,0.2-0.4l0,0c0,0,0,0,0,0l0,0l0,0l0,0
		c0.1-0.1,0.2-0.2,0.4-0.3c0.3-0.2,0.8-0.4,1.5-0.2c0,0,0.1,0,0.1,0c0.2,0,0.4,0.2,0.7,0.3l0,0l0,0c0.7,0.4,1.5,1.2,2.1,1.7l0,0l0,0
		c0.1,0.1,0.1,0.1,0.2,0.2c0.4,0.3,1.1,1,1.6,1.4c0.2,0.1,0.4,0.2,0.6,0.3c0,0,1.9,1.2,3.7,0.5c0.3-0.1,0.9-0.4,1.5-1
		c0,0,0.1-0.1,0.1-0.1c0,0,0,0,0,0c0.1-0.2,0.3-0.4,0.4-0.5l0,0l0,0c0.4-0.6,0.5-1.1,0.5-1.1l0,0c0.3-0.8,0.4-1.6,0.4-2h0.7
		c0.5,2.1,2.2,2,2.2,2c2.2,0,2-2.2,2-2.2C21.1,45.3,21,45.4,20.8,45.5z"/>
	<path class="st0" d="M34.5,5.5c0,0-0.8,2-3.3,6.9l0,0c-0.1,0.3-0.6,1.1-2.2,1.8c0,0,0.9,1.7,0.7,2.8c-1.1,3.3-2.3,7-2.7,8.3l0,0
		c0,0,0,0.1,0,0.2c-0.1,0.2-0.2,0.2-0.3,0.3c0,0-0.1,0-0.1,0c-0.4,0-0.5-0.3-0.5-0.4c-0.4-1.3-1.6-5-2.6-8.2
		c-0.2-1.1,0.7-2.8,0.7-2.8c-1.6-0.8-2.1-1.5-2.2-1.8c0,0,0-0.1,0-0.1l0,0l0,0c-0.1-0.3-0.2-0.5-0.2-0.6c-1.3,0-2.1,0.3-2.5,0.6
		c0,0,0,0,0,0.1c0,0,3.4,9,4.8,17.8h0c0,0.2,0.1,0.5,0.1,0.7c0,0.1,0,0.2,0,0.4c0.2,1.3,0.1,2.2,0,2.7c0,0,0,0.1,0,0.2v0
		c-0.1,0.3-0.4,0.4-0.4,0.5c-0.4,0.2-0.7,0.2-0.9,0.1l0,0c0,0,0,0,0,0l0,0c-0.8-0.4-0.7-1.2-0.7-1.5c0,0,0-0.1,0-0.1v0v0l0,0l0,0
		c0.1-0.4,0.5-0.7,0.5-0.7c-0.7-0.1-1.1,0-1.5,0.2c-0.1,0.1-0.7,0.4-0.9,1.1c-0.3,1.5,0.3,2.5,0.6,2.8l0,0c0,0,0,0,0,0.1
		c0.1,0.1,0.1,0.1,0.1,0.1c0.4,0.4,1.3,1.1,2.8,1.2l0,0c0.6,0,1-0.1,1.5-0.3c0,0.4-0.2,0.9-0.6,1.7c0,0,0.9-0.4,0.9,0.2h1.1h0.3h1.1
		c0-0.6,0.9-0.2,0.9-0.2c-0.4-0.8-0.5-1.3-0.6-1.7c0.4,0.2,0.9,0.3,1.5,0.3l0,0c1.5-0.1,2.4-0.8,2.8-1.2c0,0,0,0,0.1-0.1
		c0,0,0-0.1,0-0.1l0,0c0.3-0.4,0.9-1.3,0.6-2.8c-0.2-0.7-0.8-1.1-0.9-1.1c-0.4-0.2-0.8-0.3-1.5-0.2c0,0,0.3,0.3,0.5,0.7l0,0l0,0v0v0
		c0,0,0,0.1,0,0.1c0.1,0.4,0.1,1.1-0.7,1.5l0,0c0,0,0,0,0,0l0,0c-0.2,0.1-0.5,0.1-0.9-0.1c-0.1,0-0.3-0.2-0.4-0.5v0c0,0,0-0.1,0-0.2
		c-0.1-0.5-0.2-1.4,0-2.8l0,0c0-0.2,0-0.4,0.1-0.6c0-0.1,0-0.2,0.1-0.4l0,0c0.3-2.2,0.8-4.4,1.3-6.5l0,0c0,0,0,0,0,0
		c0.5-2.1,1.1-4,1.6-5.6c1.3-4.4,2.7-9.6,3.4-10.9h0.7v0.1c0,0.2,0,0.4,0,0.6c0.5,0.1,1.6,0.5,3.2,1.4c0.2-2,0.4-3.7,0.6-4.9
		c0.3-0.9,0.8-1.6,1.5-1.7c0,0,1.3-0.2,1.6,1.1c0,0.1,0,0.4,0,0.7C42.9,5,42.4,5.7,41.3,5l-0.3-0.2c0.1,0.6,0.6,0.9,1,1.1
		C42.2,6,42.7,6,43.2,5.8c1.4-0.7,1.3-2.3,1.3-2.3c-0.1-1.7-1.2-2.5-2.1-2.8c-0.6-0.2-1.2-0.2-1.4-0.2c-2.2,0.1-3.2,1.1-3.6,1.6
		h-1.1C35.8,1,34.3,1,34.3,1c-1.4-0.1-2,1.7-2,1.7S34.9,3.5,34.5,5.5z M26.6,35.9v-0.1v-0.1V35.9L26.6,35.9z"/>
	<path class="st0" d="M52.9,46.9c0,0,0.1-2.3-2.1-3.2c0,0,0,0-0.1,0c-0.2-0.1-0.9-0.3-1.9-0.2c-1,0.2-2.4,0.7-2.7,2.3h-1
		c0-0.7-0.3-2-1.6-2.4l0,0c0,0-0.6-0.2-1.3,0c-0.5,0.2-1.2,0.6-1.1,1.5c0,0,1.7-0.1,1.8,1.4l0,0c0,0,0.4,1.9-1.6,2.1l0,0
		c-0.5,0-1.1-0.1-1.7-0.8c-0.2-0.3-0.3-0.7-0.3-1l0-0.6l0,0l0,0l-0.2-3.4l0-1.4l0,0l0-1.1l0,0L39,36.4c0,0,0,0,0,0
		c0-0.8,0-1.6,0-2.4l0,0l0,0c0-2,0-4.3,0-6.8c0-0.3,0.1-0.5,0.1-0.5l0,0l1.3-2.4c0,0-0.8-1.5-1.3-2.5l0,0c-0.1-0.2-0.1-0.5-0.1-0.5
		c0-1.4,0-2.9,0.1-4.2l0,0c0,0-1.7-2-3.1-3.2c-0.1,2.4-0.2,5.2-0.3,8.1l0,0c0,0-0.1,0.5-0.2,0.7l0,0L34,24.4l1.3,2.2
		c0,0,0.2,0.4,0.2,0.7l0,0c-0.1,5.9-0.2,12.1,0,17l0,0c0,0,0,0.6-0.3,1c-0.1,0.1-0.1,0.2-0.2,0.3l0,0c0,0,0,0,0,0
		c-0.1,0.1-0.3,0.2-0.5,0.3c-0.4,0.1-1.1,0.2-1.9-0.4c-0.2-0.1-0.3-0.2-0.5-0.4c0,0-0.2,2.3,2,2.2c0,0,1.4,0.1,2-1.6h0.9
		c0,0.4,0.2,1,0.4,1.6l0,0c0,0,0.1,0.5,0.5,1.1l0,0l0,0c0.1,0.2,0.2,0.4,0.4,0.5l0,0c0,0,0.1,0.1,0.1,0.1c0.6,0.6,1.2,0.9,1.5,1
		c1.7,0.7,3.7-0.5,3.7-0.5c0.2-0.1,0.4-0.2,0.6-0.3c0.5-0.4,1.2-1.1,1.6-1.4c0.1-0.1,0.1-0.1,0.2-0.2l0,0l0,0
		c0.6-0.5,1.4-1.3,2.1-1.7l0,0l0,0c0.3-0.2,0.5-0.3,0.7-0.3c0,0,0,0,0.1,0c0.6-0.1,1.2,0,1.5,0.2c0.1,0.1,0.3,0.1,0.4,0.3l0,0l0,0
		l0,0c0,0,0,0,0,0l0,0c0.1,0.1,0.2,0.2,0.2,0.4c0.3,0.7,0.1,1.4,0,1.4c-0.2,0.4-0.6,0.8-2,0.4c0,0,0.2,0.8,1.1,1.1
		c1,0.3,1.5,0,1.5,0C52.3,49.5,53,48.7,52.9,46.9z"/>
	<path class="st0" d="M40.2,11.9c0,0-2.3-1.8-4.1-2.5c0,0.8-0.1,1.7-0.1,2.8c0.8,0.4,2.3,1.3,3.7,3.5c0,0,0,0,0,0c0,0,0,0.1,0.1,0.1
		c0.1,0.1,0.1,0.2,0.2,0.3l0,0l0,0c0.4,0.7,0.7,1.2,0.7,1.3c0.9,2.2,1.5,5,1.6,5.5c0.1,0,0.2,0,0.2,0c1.3,0,2.3,1,2.3,2.3
		s-1,2.3-2.3,2.3c-0.1,0-0.1,0-0.2,0c0,0.2,0,0.3,0,0.4l0,0c0,0-0.8,3.9-2,6.5v4.5c1.3-1.3,3.3-3.2,5.3-5.5V32h1.1
		c0.9-1.2,1.8-2.5,2.5-3.8l0,0c0,0,0,0,0,0l0,0c0.1-0.1,0.3-0.4,0.6-0.6c0.2,0,0.4-0.1,0.7-0.1c0,0,1.4,0.1,1,1.7c0,0,0.7,0,0.9-0.9
		l0,0c0.3-1.2-0.1-1.7-0.1-1.7l0,0c-0.3-0.4-0.8-0.8-1.9-0.6c0.1-0.1,0.1-0.3,0.1-0.4c0-0.1,0-0.3-0.1-0.4c1.5,0.1,2-0.5,2.1-1.1
		l0,0l0,0l0,0c0.2-0.7,0-1.3-0.2-1.6c-0.1-0.1-0.1-0.2-0.2-0.3l0,0l0,0c-0.3-0.2-0.5-0.2-0.5-0.2c0.4,1.5-1,1.6-1,1.6
		c-0.2,0-0.4,0-0.6,0c-0.4-0.1-0.6-0.4-0.6-0.4l0,0c-0.7-1.3-1.5-2.6-2.5-3.9h-1.3v-1.6C43.6,15.1,41.6,13.1,40.2,11.9z"/>
</g>
</svg>
