<?xml version="1.0" encoding="utf-8"?>
<!-- Generator: Adobe Illustrator 19.2.1, SVG Export Plug-In . SVG Version: 6.00 Build 0)  -->
<svg version="1.1" xmlns="http://www.w3.org/2000/svg" xmlns:xlink="http://www.w3.org/1999/xlink" x="0px" y="0px"
	 viewBox="0 0 10.9 10.4" style="enable-background:new 0 0 10.9 10.4;" xml:space="preserve">
<style type="text/css">
	.st0{fill:#CCCCCC;}
	.st1{fill:#FFFFFF;}
</style>
<g id="Layer_1">
	<path class="st1" d="M9.6,2.9c-0.4-0.7-1-1.3-1.8-1.8C7.1,0.7,6.3,0.5,5.5,0.5C4.6,0.5,3.8,0.7,3,1.2c-0.7,0.4-1.3,1-1.8,1.8
		C0.9,3.7,0.6,4.5,0.6,5.3c0,1.1,0.3,2,0.9,2.8C2.2,9,3,9.6,3.9,9.9l0.3,0l0.1-0.2c0,0,0-0.1,0-0.3c0-0.2,0-0.4,0-0.6l-0.1,0l-0.3,0
		c-0.1,0-0.3,0-0.4,0C3.2,8.8,3,8.7,2.9,8.6C2.8,8.5,2.7,8.4,2.6,8.2L2.6,8.1L2.4,7.8L2.1,7.5l0,0L2,7.4L1.9,7.3l0-0.1l0.2,0l0.1,0
		l0.3,0.2l0.3,0.3C3,7.9,3.1,8,3.2,8.1l0.4,0.1l0.4,0l0.3-0.1c0-0.3,0.1-0.5,0.3-0.6c-0.2,0-0.5-0.1-0.6-0.1c-0.2,0-0.4-0.1-0.6-0.2
		C3.1,7,3,6.9,2.8,6.7C2.7,6.5,2.6,6.3,2.5,6C2.4,5.8,2.4,5.4,2.4,5.1c0-0.5,0.2-0.9,0.5-1.3C2.7,3.4,2.7,3,2.9,2.5
		c0.1,0,0.3,0,0.5,0.1C3.7,2.7,3.9,2.8,4,2.8L4.3,3c0.4-0.1,0.8-0.2,1.2-0.2S6.3,2.9,6.7,3l0.2-0.2c0.2-0.1,0.4-0.2,0.6-0.3
		C7.7,2.5,7.9,2.5,8,2.5c0.2,0.5,0.2,0.9,0,1.3c0.3,0.4,0.5,0.8,0.5,1.3c0,0.4,0,0.7-0.1,0.9C8.3,6.3,8.2,6.5,8.1,6.7
		C7.9,6.9,7.8,7,7.6,7.1C7.4,7.2,7.2,7.3,7,7.4c-0.2,0-0.4,0.1-0.6,0.1C6.6,7.7,6.7,8,6.7,8.4v1.3l0.1,0.2l0.2,0
		C8,9.6,8.8,9,9.4,8.2c0.6-0.8,0.9-1.8,0.9-2.8C10.3,4.5,10.1,3.7,9.6,2.9"/>
</g>
<g id="Layer_2">
</g>
</svg>
