<?xml version="1.0" encoding="utf-8"?>
<!-- Generator: Adobe Illustrator 19.2.1, SVG Export Plug-In . SVG Version: 6.00 Build 0)  -->
<svg version="1.1" xmlns="http://www.w3.org/2000/svg" xmlns:xlink="http://www.w3.org/1999/xlink" x="0px" y="0px"
	 viewBox="0 0 10.9 10.4" style="enable-background:new 0 0 10.9 10.4;" xml:space="preserve">
<style type="text/css">
	.st0{fill:#CCCCCC;}
	.st1{fill:#FFFFFF;}
</style>
<g id="Layer_1">
	<path class="st1" d="M9.3,2.5c0.4-0.3,0.7-0.6,0.9-1.1C9.7,1.6,9.3,1.7,8.9,1.8C8.5,1.4,8,1.2,7.4,1.2c-0.6,0-1,0.2-1.4,0.6
		C5.5,2.2,5.3,2.7,5.3,3.2c0,0.2,0,0.3,0.1,0.5c-0.8,0-1.6-0.2-2.3-0.6C2.3,2.7,1.7,2.2,1.2,1.6C1,1.9,0.9,2.2,0.9,2.6
		c0,0.3,0.1,0.7,0.2,1c0.2,0.3,0.4,0.5,0.7,0.7C1.5,4.3,1.2,4.2,0.9,4v0c0,0.5,0.2,0.9,0.5,1.3C1.7,5.7,2.1,5.9,2.5,6
		C2.4,6.1,2.2,6.1,2,6.1l-0.4,0c0.1,0.4,0.4,0.7,0.7,1c0.3,0.3,0.7,0.4,1.2,0.4C2.8,8.1,1.9,8.4,1,8.4c-0.2,0-0.3,0-0.5,0
		c0.9,0.6,2,0.9,3.1,0.9c0.7,0,1.4-0.1,2-0.3C6.3,8.7,6.8,8.4,7.3,8c0.4-0.4,0.8-0.8,1.2-1.3c0.3-0.5,0.6-1,0.7-1.6
		C9.3,4.6,9.4,4,9.4,3.5l0-0.3c0.4-0.3,0.7-0.6,1-1C10,2.3,9.6,2.4,9.3,2.5"/>
</g>
<g id="Layer_2">
</g>
</svg>
