<?xml version="1.0" encoding="utf-8"?>
<!-- Generator: Adobe Illustrator 19.2.1, SVG Export Plug-In . SVG Version: 6.00 Build 0)  -->
<svg version="1.1" id="Layer_1" xmlns="http://www.w3.org/2000/svg" xmlns:xlink="http://www.w3.org/1999/xlink" x="0px" y="0px"
	 viewBox="0 0 42 50" style="enable-background:new 0 0 42 50;" xml:space="preserve">
<style type="text/css">
	.st0{fill:#9844B7;}
</style>
<g>
	<path class="st0" d="M9.1,11.1C13,7.8,18,6.4,23,6.9c4.6,0.4,8.7,2.5,11.8,5.8l-10.9,0l0,2.3L39,15L38.2,0l-2.3,0.1l0.6,11
		c-3.5-3.7-8.2-6-13.3-6.5C17.6,4.1,12,5.7,7.6,9.3c-4.3,3.5-7,8.9-7.6,13.9h2.3C2.9,18.2,5.3,14.2,9.1,11.1z"/>
	<path class="st0" d="M39.7,26.2c-0.6,5-3,9.3-6.8,12.4C29,41.9,24.1,43.5,19,43c-4.6-0.4-8.7-2.4-11.8-5.7L18,37.4l0-2.3L3,35
		l0.8,15l2.3-0.1l-0.6-11c3.5,3.7,8.2,6,13.3,6.5c5.7,0.6,11.2-1.3,15.6-4.9c4.3-3.5,7-8.2,7.6-14.2H39.7z"/>
</g>
</svg>
